<?xml version="1.0" encoding="utf-8"?>
<!-- Generator: Adobe Illustrator 24.2.1, SVG Export Plug-In . SVG Version: 6.00 Build 0)  -->
<svg version="1.1" xmlns="http://www.w3.org/2000/svg" xmlns:xlink="http://www.w3.org/1999/xlink" x="0px" y="0px"
	 viewBox="0 0 1200 800" style="enable-background:new 0 0 1200 800;" xml:space="preserve">
<style type="text/css">
	.st0{fill:#F9F5F2;}
	.st1{clip-path:url(#SVGID_2_);}
	.st2{opacity:0.5;fill:url(#SVGID_3_);}
	.st3{fill:url(#SVGID_4_);}
	.st4{fill:none;}
	.st5{fill:#41AB8A;}
	.st6{fill:#24394A;}
	.st7{opacity:0.3;fill:url(#SVGID_5_);}
	.st8{fill:#22445D;}
	.st9{fill:url(#SVGID_6_);}
	.st10{opacity:0.3;fill:url(#SVGID_7_);}
	.st11{fill:url(#SVGID_8_);}
	.st12{fill:#162E41;}
	.st13{fill:url(#SVGID_9_);}
	.st14{fill:url(#SVGID_10_);}
	.st15{fill:url(#SVGID_11_);}
	.st16{fill:url(#SVGID_12_);}
	.st17{fill:url(#SVGID_13_);}
	.st18{fill:url(#SVGID_14_);}
	.st19{fill:url(#SVGID_15_);}
	.st20{fill:#0D2333;}
	.st21{fill:url(#SVGID_16_);}
	.st22{fill:url(#SVGID_17_);}
	.st23{fill:url(#SVGID_18_);}
	.st24{opacity:0.4;fill:url(#SVGID_19_);}
	.st25{opacity:0.5;fill:url(#SVGID_20_);}
	.st26{fill:url(#SVGID_21_);}
	.st27{fill:url(#SVGID_22_);}
</style>
<g id="background">
	<rect x="0" class="st0" width="1200" height="800"/>
	<rect x="658.64" y="336.87" class="st0" width="30.31" height="6.34"/>
	<rect x="649.33" y="289.22" class="st0" width="394.53" height="165.74"/>
	<rect x="1068.01" y="454.96" class="st0" width="24.15" height="0"/>
	<rect x="600" y="271.63" class="st0" width="535.59" height="209.26"/>
</g>
<g id="object">
	<g>
		<defs>
			<rect id="SVGID_1_" x="0" width="888.67" height="800"/>
		</defs>
		<clipPath id="SVGID_2_">
			<use xlink:href="#SVGID_1_"  style="overflow:visible;"/>
		</clipPath>
		<g class="st1">
			<g>
				<linearGradient id="SVGID_3_" gradientUnits="userSpaceOnUse" x1="150.1215" y1="574.6205" x2="335.4053" y2="707.3905">
					<stop  offset="0.3731" style="stop-color:#0D2333"/>
					<stop  offset="0.3979" style="stop-color:#394B58"/>
					<stop  offset="0.4254" style="stop-color:#62707B"/>
					<stop  offset="0.4563" style="stop-color:#88939B"/>
					<stop  offset="0.49" style="stop-color:#A8B0B6"/>
					<stop  offset="0.5272" style="stop-color:#C4C9CD"/>
					<stop  offset="0.5692" style="stop-color:#DADDDF"/>
					<stop  offset="0.6182" style="stop-color:#EBECEE"/>
					<stop  offset="0.6789" style="stop-color:#F6F7F8"/>
					<stop  offset="0.7639" style="stop-color:#FDFDFD"/>
					<stop  offset="1" style="stop-color:#FFFFFF"/>
				</linearGradient>
				<polygon class="st2" points="357.33,684.67 340.89,663.46 267.88,569.23 178.43,684.67 				"/>
				<linearGradient id="SVGID_4_" gradientUnits="userSpaceOnUse" x1="463.4096" y1="686.561" x2="568.685" y2="581.2856">
					<stop  offset="0.0316" style="stop-color:#0D2333"/>
					<stop  offset="0.4443" style="stop-color:#2E796A"/>
					<stop  offset="0.7079" style="stop-color:#41AB8A"/>
				</linearGradient>
				<polygon class="st3" points="616.51,593.7 475.54,593.7 475.53,593.71 546.01,684.67 546.03,684.67 616.51,593.71 				"/>
				<polygon class="st4" points="-0.51,453.76 -179.41,453.76 -179.42,453.77 -179.42,453.77 -179.41,453.76 -0.51,453.76 
					-0.5,453.77 88.95,569.21 88.95,569.21 -0.5,453.77 				"/>
				<polygon class="st4" points="-89.97,338.3 -89.97,338.3 -179.42,222.86 -179.42,222.85 -0.51,222.85 -0.5,222.86 -0.5,222.85 
					178.41,222.85 178.42,222.86 178.41,222.85 -0.5,222.85 -0.5,222.86 -0.51,222.85 -179.42,222.85 -179.42,222.86 				"/>
				<polygon class="st4" points="-89.97,569.21 -179.42,453.77 -179.42,453.77 				"/>
				<polygon class="st4" points="382.32,652.42 446.8,569.22 446.79,569.21 446.8,569.22 				"/>
				<polygon class="st4" points="267.85,800.13 267.86,800.11 267.84,800.11 				"/>
				<polygon class="st4" points="357.33,684.66 340.89,663.45 357.33,684.66 				"/>
				<polygon class="st5" points="88.96,569.22 178.41,684.66 178.43,684.66 267.88,569.22 267.88,569.22 267.88,569.22 
					267.87,569.21 88.97,569.21 				"/>
				<polygon class="st6" points="267.86,800.11 267.87,800.11 267.89,800.11 446.76,800.11 357.32,684.69 357.31,684.67 				"/>
				<polygon class="st5" points="-89.96,338.3 -89.96,338.31 -0.51,453.76 -0.49,453.76 88.96,338.31 88.95,338.3 88.95,338.3 
					-89.96,338.3 				"/>
				
					<linearGradient id="SVGID_5_" gradientUnits="userSpaceOnUse" x1="306.0796" y1="2582.177" x2="408.5356" y2="2684.6331" gradientTransform="matrix(1 0 0 -1 0 3446.5244)">
					<stop  offset="0" style="stop-color:#FFFFFF"/>
					<stop  offset="1" style="stop-color:#1C1C1B"/>
				</linearGradient>
				<polygon class="st7" points="267.88,800.13 267.87,800.11 267.86,800.11 267.85,800.13 357.3,915.56 357.32,915.56 
					446.77,800.13 446.76,800.11 267.89,800.11 				"/>
				<polygon class="st8" points="178.41,453.76 88.96,338.31 -0.49,453.76 				"/>
				<linearGradient id="SVGID_6_" gradientUnits="userSpaceOnUse" x1="1.2714" y1="554.4461" x2="159.7262" y2="395.9913">
					<stop  offset="0.1729" style="stop-color:#0D2333"/>
					<stop  offset="0.2002" style="stop-color:#14343E"/>
					<stop  offset="0.2674" style="stop-color:#215855"/>
					<stop  offset="0.3383" style="stop-color:#2D7668"/>
					<stop  offset="0.4127" style="stop-color:#368E77"/>
					<stop  offset="0.4921" style="stop-color:#3C9E82"/>
					<stop  offset="0.5802" style="stop-color:#40A888"/>
					<stop  offset="0.6939" style="stop-color:#41AB8A"/>
				</linearGradient>
				<polygon class="st9" points="-0.5,453.77 88.95,569.21 88.97,569.21 178.42,453.77 178.41,453.76 -0.49,453.76 				"/>
				<polygon class="st5" points="88.96,107.41 -0.5,222.85 178.41,222.85 				"/>
				<linearGradient id="SVGID_7_" gradientUnits="userSpaceOnUse" x1="-51.7316" y1="69.1743" x2="50.7247" y2="171.6306">
					<stop  offset="0" style="stop-color:#FFFFFF"/>
					<stop  offset="0.2638" style="stop-color:#FDFDFD"/>
					<stop  offset="0.4057" style="stop-color:#F5F5F5"/>
					<stop  offset="0.5186" style="stop-color:#E7E7E7"/>
					<stop  offset="0.6162" style="stop-color:#D4D4D4"/>
					<stop  offset="0.7041" style="stop-color:#BBBBBB"/>
					<stop  offset="0.7848" style="stop-color:#9C9C9C"/>
					<stop  offset="0.8601" style="stop-color:#787877"/>
					<stop  offset="0.9301" style="stop-color:#4E4E4D"/>
					<stop  offset="0.9954" style="stop-color:#20201F"/>
					<stop  offset="1" style="stop-color:#1C1C1B"/>
				</linearGradient>
				<polygon class="st10" points="-0.51,222.85 -0.5,222.85 88.96,107.41 88.95,107.4 -89.96,107.4 -89.96,107.41 				"/>
				<polygon class="st5" points="-0.5,-8.04 -89.96,107.4 88.95,107.4 				"/>
				<polygon class="st8" points="88.95,569.21 -89.95,569.21 -89.95,569.21 -89.96,569.22 -89.96,569.22 -89.96,569.22 
					-0.51,684.66 -0.49,684.66 88.96,569.22 88.95,569.21 				"/>
				
					<linearGradient id="SVGID_8_" gradientUnits="userSpaceOnUse" x1="-179.4231" y1="2935.043" x2="88.9464" y2="2935.043" gradientTransform="matrix(1 0 0 -1 0 3446.5244)">
					<stop  offset="0" style="stop-color:#0D2333"/>
					<stop  offset="0.1413" style="stop-color:#0D2333"/>
					<stop  offset="1" style="stop-color:#0D2333"/>
				</linearGradient>
				<polygon class="st11" points="-0.51,453.76 -179.41,453.76 -179.42,453.77 -89.97,569.21 -89.95,569.21 -89.95,569.21 
					88.95,569.21 -0.5,453.77 				"/>
				<polygon class="st8" points="-0.51,453.76 -89.96,338.31 -179.41,453.76 				"/>
				<polygon class="st12" points="-179.41,684.66 -0.51,684.66 -89.96,569.22 				"/>
				
					<linearGradient id="SVGID_9_" gradientUnits="userSpaceOnUse" x1="-141.1917" y1="2697.6294" x2="-38.735" y2="2800.0859" gradientTransform="matrix(1 0 0 -1 0 3446.5244)">
					<stop  offset="0" style="stop-color:#0D2333"/>
					<stop  offset="0.1413" style="stop-color:#0D2333"/>
					<stop  offset="1" style="stop-color:#0D2333"/>
				</linearGradient>
				<polygon class="st13" points="-179.41,684.66 -179.41,684.66 -179.42,684.67 -179.42,684.67 -179.42,684.67 -89.97,800.11 
					-89.95,800.11 -0.5,684.67 -0.51,684.66 -179.41,684.66 				"/>
				<rect x="-89.96" y="569.22" class="st8" width="0" height="0"/>
				
					<linearGradient id="SVGID_10_" gradientUnits="userSpaceOnUse" x1="-89.9633" y1="2877.3191" x2="-89.9633" y2="2874.1191" gradientTransform="matrix(1 0 0 -1 0 3446.5244)">
					<stop  offset="0" style="stop-color:#0D2333"/>
					<stop  offset="0.1413" style="stop-color:#0D2333"/>
					<stop  offset="1" style="stop-color:#0D2333"/>
				</linearGradient>
				<rect x="-89.96" y="569.22" class="st14" width="0" height="0"/>
				<rect x="-134.69" y="553.92" class="st12" width="0" height="146.04"/>
				
					<linearGradient id="SVGID_11_" gradientUnits="userSpaceOnUse" x1="-134.6879" y1="2877.3042" x2="-134.6879" y2="2646.4258" gradientTransform="matrix(1 0 0 -1 0 3446.5244)">
					<stop  offset="0" style="stop-color:#0D2333"/>
					<stop  offset="0.1413" style="stop-color:#0D2333"/>
					<stop  offset="1" style="stop-color:#0D2333"/>
				</linearGradient>
				<rect x="-134.69" y="553.92" class="st15" width="0" height="146.04"/>
				
					<linearGradient id="SVGID_12_" gradientUnits="userSpaceOnUse" x1="-179.4231" y1="2761.8513" x2="-179.4231" y2="2761.8513" gradientTransform="matrix(1 0 0 -1 0 3446.5244)">
					<stop  offset="0" style="stop-color:#0D2333"/>
					<stop  offset="0.1413" style="stop-color:#0D2333"/>
					<stop  offset="1" style="stop-color:#0D2333"/>
				</linearGradient>
				<rect x="-179.42" y="684.67" class="st16" width="0" height="0"/>
				
					<linearGradient id="SVGID_13_" gradientUnits="userSpaceOnUse" x1="-179.4231" y1="2761.8513" x2="-179.4231" y2="2761.8513" gradientTransform="matrix(1 0 0 -1 0 3446.5244)">
					<stop  offset="0" style="stop-color:#0D2333"/>
					<stop  offset="0.1413" style="stop-color:#0D2333"/>
					<stop  offset="1" style="stop-color:#0D2333"/>
				</linearGradient>
				<rect x="-179.42" y="684.67" class="st17" width="0" height="0"/>
				
					<linearGradient id="SVGID_14_" gradientUnits="userSpaceOnUse" x1="-180.4127" y1="2760.8647" x2="-178.4127" y2="2762.8647" gradientTransform="matrix(1 0 0 -1 0 3446.5244)">
					<stop  offset="0" style="stop-color:#0D2333"/>
					<stop  offset="0.1413" style="stop-color:#0D2333"/>
					<stop  offset="1" style="stop-color:#0D2333"/>
				</linearGradient>
				<rect x="-179.41" y="684.66" class="st18" width="0" height="0"/>
				
					<linearGradient id="SVGID_15_" gradientUnits="userSpaceOnUse" x1="-179.4126" y1="2763.865" x2="-179.4126" y2="2759.865" gradientTransform="matrix(1 0 0 -1 0 3446.5244)">
					<stop  offset="0" style="stop-color:#0D2333"/>
					<stop  offset="0.1413" style="stop-color:#0D2333"/>
					<stop  offset="1" style="stop-color:#0D2333"/>
				</linearGradient>
				<rect x="-179.41" y="684.66" class="st19" width="0" height="0"/>
				<polygon class="st8" points="88.94,800.14 -0.49,915.56 178.38,915.56 				"/>
				<polygon class="st20" points="-179.42,222.85 -179.42,222.86 -89.97,338.3 -89.97,338.3 -89.96,338.31 -89.96,338.3 
					-89.96,338.3 88.95,338.3 -0.5,222.86 -0.51,222.85 				"/>
				<polygon class="st12" points="-89.96,107.41 -179.42,222.85 -0.51,222.85 				"/>
				<polygon class="st6" points="88.94,800.14 178.38,915.56 178.4,915.56 178.4,915.56 178.43,915.56 357.3,915.56 267.85,800.13 
					267.84,800.11 88.97,800.11 88.96,800.13 88.95,800.11 88.94,800.11 88.93,800.13 				"/>
				<polygon class="st5" points="267.86,800.11 267.87,800.11 267.86,800.11 178.42,684.67 88.97,800.11 267.84,800.11 				"/>
				<polygon class="st12" points="178.41,222.85 178.42,222.85 267.88,107.41 267.87,107.4 88.96,107.4 88.96,107.41 				"/>
				<polygon class="st8" points="382.32,652.42 357.35,684.66 536.25,684.66 446.8,569.22 				"/>
				<polygon class="st8" points="446.8,569.22 446.79,569.21 357.34,453.77 267.89,569.21 267.88,569.21 267.89,569.21 
					267.87,569.21 267.88,569.22 267.88,569.22 267.88,569.22 340.89,663.45 357.33,684.66 357.33,684.66 178.43,684.66 
					178.41,684.66 88.96,569.22 -0.49,684.66 -0.51,684.66 -0.5,684.67 -89.95,800.11 88.94,800.11 88.95,800.11 88.96,800.13 
					88.97,800.11 178.42,684.67 267.86,800.11 357.31,684.67 357.32,684.69 357.34,684.67 357.35,684.66 357.35,684.66 
					357.35,684.66 382.32,652.42 				"/>
				<polygon class="st6" points="267.87,569.21 267.89,569.21 357.34,453.77 357.33,453.76 178.43,453.76 178.42,453.77 				"/>
				<polygon class="st20" points="267.89,800.11 267.87,800.11 267.88,800.13 				"/>
				<polygon class="st20" points="-0.49,453.76 -0.51,453.76 -0.5,453.77 				"/>
				<polygon class="st20" points="88.95,569.21 88.96,569.22 88.97,569.21 				"/>
				<polygon class="st20" points="-89.96,800.13 -89.95,800.11 -89.97,800.11 				"/>
				<polygon class="st20" points="-0.49,915.56 -0.52,915.56 -0.5,915.58 				"/>
				<polygon class="st20" points="-179.43,684.66 -179.42,684.67 -179.42,684.67 -179.41,684.66 -179.41,684.66 				"/>
				<polygon class="st20" points="-89.96,107.4 -89.97,107.4 -89.96,107.41 				"/>
				<polygon class="st20" points="-179.41,915.56 -179.44,915.56 -179.42,915.58 				"/>
				<polygon class="st8" points="366.68,320.7 366.68,320.7 335.6,280.58 304.52,320.7 				"/>
				<polygon class="st8" points="262.32,82.9 262.32,82.9 213.51,19.91 164.7,82.9 				"/>
				<polygon class="st20" points="-89.96,569.22 -89.96,569.22 -89.95,569.21 -89.97,569.21 				"/>
				<polygon class="st20" points="267.88,107.4 267.87,107.4 267.88,107.41 				"/>
				<polygon class="st20" points="-0.5,222.85 -0.51,222.85 -0.5,222.86 				"/>
				<polygon class="st20" points="446.81,800.11 446.78,800.11 446.8,800.13 				"/>
				<polygon class="st20" points="536.26,684.67 536.27,684.66 536.25,684.66 				"/>
				<polygon class="st20" points="-0.51,-8.05 -0.5,-8.04 -0.5,-8.05 				"/>
				<polygon class="st20" points="446.81,569.21 446.79,569.21 446.8,569.22 				"/>
				<polygon class="st20" points="88.96,107.4 88.95,107.4 88.96,107.41 				"/>
				<polygon class="st20" points="357.35,453.76 357.33,453.76 357.34,453.77 				"/>
				<polygon class="st20" points="267.87,338.3 88.96,338.3 88.96,338.3 88.96,338.3 88.95,338.3 88.95,338.3 88.96,338.31 
					178.41,453.76 178.42,453.77 178.43,453.76 267.88,338.31 267.88,338.3 267.87,338.3 267.87,338.3 				"/>
				<g>
					<path class="st4" d="M267.87,338.3L267.87,338.3L267.87,338.3z"/>
					<polygon class="st8" points="-0.5,222.85 -0.5,222.86 88.95,338.3 178.41,222.85 					"/>
					<polygon class="st5" points="178.41,222.85 88.95,338.3 267.91,338.3 					"/>
				</g>
				
					<linearGradient id="SVGID_16_" gradientUnits="userSpaceOnUse" x1="88.9258" y1="2761.8577" x2="88.9258" y2="2646.406" gradientTransform="matrix(1 0 0 -1 0 3446.5244)">
					<stop  offset="0" style="stop-color:#0D2333"/>
					<stop  offset="0.0244" style="stop-color:#0F2738"/>
					<stop  offset="0.1349" style="stop-color:#183449"/>
					<stop  offset="0.2718" style="stop-color:#1E3D54"/>
					<stop  offset="0.4647" style="stop-color:#21435B"/>
					<stop  offset="1" style="stop-color:#22445D"/>
				</linearGradient>
				<polygon class="st21" points="88.92,800.12 88.94,800.12 178.38,684.7 178.36,684.68 178.38,684.67 -0.52,684.67 -0.53,684.68 
									"/>
				
					<linearGradient id="SVGID_17_" gradientUnits="userSpaceOnUse" x1="267.8874" y1="2761.8577" x2="267.8874" y2="2646.406" gradientTransform="matrix(1 0 0 -1 0 3446.5244)">
					<stop  offset="0" style="stop-color:#0D2333"/>
					<stop  offset="0.0244" style="stop-color:#0F2738"/>
					<stop  offset="0.1349" style="stop-color:#183449"/>
					<stop  offset="0.2718" style="stop-color:#1E3D54"/>
					<stop  offset="0.4647" style="stop-color:#21435B"/>
					<stop  offset="1" style="stop-color:#22445D"/>
				</linearGradient>
				<polygon class="st22" points="267.88,800.12 267.91,800.12 357.34,684.7 357.33,684.68 357.34,684.67 178.45,684.67 
					178.43,684.68 				"/>
				
					<linearGradient id="SVGID_18_" gradientUnits="userSpaceOnUse" x1="178.4347" y1="3339.1206" x2="178.4347" y2="3223.6729" gradientTransform="matrix(1 0 0 -1 0 3446.5244)">
					<stop  offset="0" style="stop-color:#0D2333"/>
					<stop  offset="0.0244" style="stop-color:#0F2738"/>
					<stop  offset="0.1349" style="stop-color:#183449"/>
					<stop  offset="0.2718" style="stop-color:#1E3D54"/>
					<stop  offset="0.4647" style="stop-color:#21435B"/>
					<stop  offset="1" style="stop-color:#22445D"/>
				</linearGradient>
				<polygon class="st23" points="178.41,222.85 178.41,222.85 267.89,107.44 267.87,107.42 267.88,107.4 88.99,107.4 88.98,107.42 
									"/>
				
					<linearGradient id="SVGID_19_" gradientUnits="userSpaceOnUse" x1="-0.9438" y1="3108.0007" x2="-0.9438" y2="2992.5488" gradientTransform="matrix(1 0 0 -1 0 3446.5244)">
					<stop  offset="0" style="stop-color:#0D2333"/>
					<stop  offset="0.0396" style="stop-color:#394B58"/>
					<stop  offset="0.0835" style="stop-color:#62707B"/>
					<stop  offset="0.1328" style="stop-color:#88939B"/>
					<stop  offset="0.1865" style="stop-color:#A8B0B6"/>
					<stop  offset="0.2458" style="stop-color:#C4C9CD"/>
					<stop  offset="0.3128" style="stop-color:#DADDDF"/>
					<stop  offset="0.3911" style="stop-color:#EBECEE"/>
					<stop  offset="0.4878" style="stop-color:#F6F7F8"/>
					<stop  offset="0.6234" style="stop-color:#FDFDFD"/>
					<stop  offset="1" style="stop-color:#FFFFFF"/>
				</linearGradient>
				<polygon class="st24" points="-0.95,453.98 -0.92,453.98 88.51,338.56 88.5,338.54 88.51,338.52 -90.39,338.52 -90.4,338.54 
									"/>
				<linearGradient id="SVGID_20_" gradientUnits="userSpaceOnUse" x1="239.5522" y1="459.1484" x2="424.836" y2="591.9185">
					<stop  offset="0.3731" style="stop-color:#0D2333"/>
					<stop  offset="0.3979" style="stop-color:#394B58"/>
					<stop  offset="0.4254" style="stop-color:#62707B"/>
					<stop  offset="0.4563" style="stop-color:#88939B"/>
					<stop  offset="0.49" style="stop-color:#A8B0B6"/>
					<stop  offset="0.5272" style="stop-color:#C4C9CD"/>
					<stop  offset="0.5692" style="stop-color:#DADDDF"/>
					<stop  offset="0.6182" style="stop-color:#EBECEE"/>
					<stop  offset="0.6789" style="stop-color:#F6F7F8"/>
					<stop  offset="0.7639" style="stop-color:#FDFDFD"/>
					<stop  offset="1" style="stop-color:#FFFFFF"/>
				</linearGradient>
				<polygon class="st25" points="446.76,569.2 430.32,547.99 357.31,453.76 267.86,569.2 				"/>
				
					<linearGradient id="SVGID_21_" gradientUnits="userSpaceOnUse" x1="267.8977" y1="-1204.3417" x2="446.796" y2="-1204.3417" gradientTransform="matrix(1 0 0 -1 0 -577.4084)">
					<stop  offset="0.0316" style="stop-color:#0D2333"/>
					<stop  offset="0.0561" style="stop-color:#13323D"/>
					<stop  offset="0.1177" style="stop-color:#1F5251"/>
					<stop  offset="0.1869" style="stop-color:#2A6E63"/>
					<stop  offset="0.2646" style="stop-color:#328571"/>
					<stop  offset="0.3545" style="stop-color:#39967D"/>
					<stop  offset="0.4643" style="stop-color:#3EA284"/>
					<stop  offset="0.6151" style="stop-color:#40A989"/>
					<stop  offset="1" style="stop-color:#41AB8A"/>
				</linearGradient>
				<polygon class="st26" points="421.82,601.45 446.8,569.21 267.9,569.21 357.35,684.65 				"/>
			</g>
			<polygon class="st5" points="295.41,325.55 241.71,394.85 241.71,394.86 241.72,394.86 349.11,394.86 			"/>
		</g>
	</g>
	<linearGradient id="SVGID_22_" gradientUnits="userSpaceOnUse" x1="-12.5905" y1="806.1408" x2="57.2845" y2="728.2934">
		<stop  offset="0" style="stop-color:#41AB8A"/>
		<stop  offset="0.3849" style="stop-color:#40A989"/>
		<stop  offset="0.5357" style="stop-color:#3EA284"/>
		<stop  offset="0.6455" style="stop-color:#39967D"/>
		<stop  offset="0.7354" style="stop-color:#328571"/>
		<stop  offset="0.8131" style="stop-color:#2A6E63"/>
		<stop  offset="0.8823" style="stop-color:#1F5251"/>
		<stop  offset="0.9439" style="stop-color:#13323D"/>
		<stop  offset="0.9684" style="stop-color:#0D2333"/>
	</linearGradient>
	<polygon class="st27" points="0,684.6 89.42,800 0,800 	"/>
</g>
</svg>
